<?xml version="1.0" encoding="utf-8"?>
<!-- Generator: Adobe Illustrator 24.1.3, SVG Export Plug-In . SVG Version: 6.00 Build 0)  -->
<svg version="1.1" id="Layer_1" xmlns="http://www.w3.org/2000/svg" x="0px" y="0px"
	 viewBox="0 0 593.5 135" style="enable-background:new 0 0 593.5 135;" xml:space="preserve">
<style type="text/css">
	.st0{fill:none;stroke:#000000;stroke-width:0.5408;stroke-miterlimit:10;}
	.st1{fill:#FFFFFF;}
	.st2{fill:#F05325;}
	.st3{fill:none;stroke:#000000;stroke-width:0.9998;stroke-miterlimit:10;}
	.st4{fill:#FFFFFF;stroke:#000000;stroke-width:0.9998;stroke-miterlimit:10;}
</style>
<path class="st0" d="M258.7,25"/>
<path class="st1" d="M420.6,48.5v43.6c0,10.2-3.7,15.8-16.6,15.8s-16.6-5.6-16.6-15.8V48.5c0-10.2,3.7-15.8,16.6-15.8
	C416.9,32.6,420.6,38.2,420.6,48.5z M397.6,48.6V92c0,5.6,2,7.5,6.4,7.5c4.5,0,6.5-1.9,6.5-7.5V48.6c0-5.7-2-7.5-6.5-7.5
	C399.6,41.2,397.6,42.9,397.6,48.6z"/>
<path class="st1" d="M463.5,104.5c0,1.7-0.9,2.8-2.8,2.8h-4.5c-1.9,0-2.8-1.1-2.8-2.8V48.9c0-5.6-1.6-7.5-6-7.5
	c-4.5,0-6.9,2.4-6.9,8v55.1c0,1.7-1.1,2.8-2.9,2.8h-4.4c-1.9,0-2.9-1.1-2.9-2.8V36.1c0-1.9,1.1-2.8,2.9-2.8h4.4
	c1.9,0,2.9,0.9,2.9,2.8v1.7c3.3-3.3,8-5.2,12.1-5.2c5.9,0,10.9,3.7,10.9,12.2V104.5z"/>
<path class="st1" d="M483.5,65.4h0.7l15-30.3c0.5-1.1,1.3-1.7,2.8-1.7h5.2c2.3,0,2.8,2.3,2.1,3.9l-16.5,33l16.5,33.3
	c0.7,1.6,0.1,3.9-2.1,3.9H502c-1.5,0-2.3-0.7-2.8-1.9l-15-30.3h-0.7v29.1c0,1.9-1.1,2.9-2.9,2.9h-4.4c-1.9,0-2.9-1.1-2.9-2.9V3.6
	c0-1.9,1.1-2.8,2.9-2.8h4.4c1.9,0,2.9,0.9,2.9,2.8V65.4z"/>
<path class="st1" d="M563.6,36.2l5.3,37.4l2.5,23.3h0.7l2.5-23.3l5.2-37.4c0.3-2,1.2-2.8,3.3-2.8h4.3c1.9,0,3.1,1.1,2.7,3.5
	l-14.4,94.3c-0.3,1.9-1.1,2.8-3.2,2.8h-4.3c-1.9,0-3.1-1.1-2.7-3.5l3.9-23.2h-2.3c-2,0-2.9-0.9-3.3-2.8l-10.4-67.7
	c-0.4-2.4,0.9-3.5,2.7-3.5h4.3C562.5,33.4,563.3,34.2,563.6,36.2z"/>
<g>
	<path class="st1" d="M330.6,79.7l-0.9,0.7c-0.2,4.7-3.5,8.7-7.8,9.9v14.2c0,1.7,1.1,2.8,2.9,2.8h4.4c1.9,0,2.9-1.1,2.9-2.8V78.2
		C331.6,78.7,331.1,79.2,330.6,79.7z"/>
	<path class="st1" d="M367.3,32.6c-5.5,0-10,2-13.7,5.6c-1.9-3.9-5.5-5.6-9.4-5.6c-4.1,0-8.8,1.9-12.1,5.2v-1.7
		c0-1.9-1.1-2.8-2.9-2.8h-4.4c-1.9,0-2.9,0.9-2.9,2.8v18.1c4.8,2.1,8.1,4.4,10.2,6.6V49.4c0-5.6,2.4-8,6.9-8c4.4,0,6,1.9,6,7.5v55.6
		c0,1.7,0.9,2.8,2.8,2.8h4.5c1.9,0,2.8-1.1,2.8-2.8V49.4c0-5.9,2.7-8,6.9-8c4.5,0,6,1.9,6,7.5v55.6c0,1.7,1.1,2.8,2.9,2.8h4.4
		c1.9,0,2.9-1.1,2.9-2.8V44.9C378.3,36.4,373.2,32.6,367.3,32.6z"/>
</g>
<path class="st2" d="M278.9,50.9c-29.3,0-53,8.3-53,18.6c0,10.3,23.7,18.6,53,18.6c8,0,15.6-0.6,22.4-1.7c-0.3-0.9-0.7-1.7-1.2-2.5
	c-6.3,1.2-13.5,1.9-21.2,1.9c-25,0-45.3-7.3-45.3-16.3s20.3-16.3,45.3-16.3s45.3,7.3,45.3,16.3c0,0.7-0.1,1.4-0.4,2.1
	c1.9,1.1,3.4,2.9,4.1,5c2.6-2.2,4-4.6,4-7.1C331.9,59.2,308.2,50.9,278.9,50.9z"/>
<path class="st2" d="M294.6,59.5c-3.7-5.9-7.7-11.2-11.7-15.9c-0.6,0.4-1.1,0.8-1.6,1.3c-0.1,0.1-0.2,0.3-0.3,0.4
	c4,4.4,8,9.6,11.7,15.5c13.5,21.1,18.2,42.1,10.7,46.9c-7.6,4.8-24.6-8.3-38.1-29.4s-18.2-42.1-10.7-46.9c1-0.6,2.2-1,3.5-1
	c0.4-2,1.4-3.8,2.9-5.1c-4.2-1.9-7.9-2.1-10.5-0.4c-8.7,5.5-2.9,30,12.8,54.7c15.8,24.7,35.6,40.2,44.2,34.7
	C316.1,108.7,310.4,84.2,294.6,59.5z"/>
<circle class="st2" cx="278.9" cy="69.5" r="9"/>
<path class="st2" d="M255.2,80.2c2.4-6.1,5.7-12.8,10-19.4c13.4-21.1,30.4-34.3,38-29.5s2.8,25.8-10.6,46.9s-30.4,34.3-38,29.5
	c-0.2-0.1-0.4-0.3-0.6-0.5c-1.4,0.8-2.9,1.4-4.6,1.4c-0.9,0-1.7,0-2.5-0.2c0.6,2.6,1.8,4.6,3.6,5.8c8.7,5.5,28.5-10,44.2-34.8
	c15.7-24.7,21.4-49.2,12.7-54.7c-8.7-5.5-28.5,10-44.2,34.8c-4.3,6.8-7.9,13.5-10.6,19.9L255.2,80.2z"/>
<circle class="st2" cx="248.9" cy="99.1" r="7.2"/>
<circle class="st2" cx="318.9" cy="79.9" r="7.2"/>
<g>
	<path class="st1" d="M592.5,102.6c0,2.5-2,4.5-4.6,4.5c-2.5,0-4.6-2-4.6-4.5s2.1-4.4,4.6-4.4C590.5,98.2,592.5,100.2,592.5,102.6z
		 M584.6,102.6c0,1.9,1.4,3.4,3.3,3.4c1.9,0,3.3-1.5,3.3-3.4s-1.4-3.4-3.3-3.4C586.1,99.2,584.6,100.7,584.6,102.6z M587.3,104.8
		h-1.2v-4.3c0.3-0.1,1-0.1,1.8-0.1c0.9,0,1.3,0.1,1.6,0.3c0.3,0.2,0.5,0.5,0.5,0.9s-0.4,0.8-1,1v0.1c0.4,0.2,0.7,0.5,0.8,1.1
		s0.2,0.9,0.3,1h-1.3c-0.1-0.2-0.2-0.5-0.3-1c-0.1-0.4-0.3-0.6-0.8-0.6h-0.4L587.3,104.8L587.3,104.8z M587.4,102.4h0.4
		c0.5,0,0.9-0.2,0.9-0.6s-0.3-0.6-0.8-0.6c-0.2,0-0.4,0-0.5,0L587.4,102.4L587.4,102.4z"/>
</g>
<path class="st3" d="M256.6,36"/>
<path class="st4" d="M547,92.9"/>
<path class="st1" d="M509.2,62.4v-15l-11.4,22.8l11.4,22.9V78.2"/>
<path class="st1" d="M545.2,74.5c2,0,3.1-1.1,3.1-3.1V48.5c0-10.2-3.7-15.8-16.6-15.8c-12.9,0-16.6,5.6-16.6,15.8v17.8h-11.2v8H515
	v17.9c0,10.2,3.7,15.8,16.6,15.8c12.9,0,16.6-5.6,16.6-15.8v-4.9c0-1.9-0.9-2.8-2.8-2.8H541c-1.9,0-2.8,0.9-2.8,2.8v4.8
	c0,5.6-2,7.5-6.5,7.5c-4.4,0-6.4-1.9-6.4-7.5V74.5L545.2,74.5L545.2,74.5z M525.3,48.7c0-5.7,2-7.5,6.4-7.5c4.5,0,6.5,1.7,6.5,7.5
	v17.4h-12.9V48.7z"/>
<circle class="st2" cx="267.8" cy="32.4" r="7.2"/>
<circle class="st1" cx="135.6" cy="39.9" r="7.2"/>
<path class="st1" d="M-3.5,82.8"/>
<path class="st1" d="M34.2,116.7c0,11-4,17.2-18,17.2H9.7c-1.9,0-2.9-0.9-2.9-2.8v-2.8c0-1.9,1.1-2.9,2.9-2.9h6.5
	c6.3,0,7.9-3.2,7.9-8.8v-13.8c-3.5,3.3-8.1,5.2-12.2,5.2C6,108,1,104.3,1,95.8V45c0-8.5,5.1-12.2,10.9-12.2c4.1,0,8.8,1.9,12.2,5.2
	v-1.7c0-1.9,0.9-2.8,2.8-2.8h4.5c1.9,0,2.8,0.9,2.8,2.8V116.7z M11.1,91.6c0,5.7,1.5,7.5,5.9,7.5c4.5,0,7.1-2.3,7.1-7.9V49.4
	c0-5.6-2.5-8-7.1-8c-4.4,0-5.9,1.9-5.9,7.5C11.1,48.9,11.1,91.6,11.1,91.6z"/>
<path class="st1" d="M76.9,71.4c0,2-1.1,3.1-3.1,3.1h-20v17.6c0,5.6,2,7.5,6.4,7.5c4.5,0,6.5-1.9,6.5-7.5v-4.8
	c0-1.9,0.9-2.8,2.8-2.8H74c1.9,0,2.8,0.9,2.8,2.8v4.9c0,10.2-3.7,15.8-16.6,15.8c-12.9,0-16.6-5.6-16.6-15.8V48.6
	c0-10.2,3.7-15.8,16.6-15.8s16.6,5.6,16.6,15.8v22.8H76.9z M53.9,66h12.9V48.6c0-5.7-2-7.5-6.5-7.5c-4.4,0-6.4,1.7-6.4,7.5V66z"/>
<path class="st1" d="M119.9,104.5c0,1.7-0.9,2.8-2.8,2.8h-4.5c-1.9,0-2.8-1.1-2.8-2.8V48.9c0-5.6-1.6-7.5-6-7.5
	c-4.5,0-6.9,2.4-6.9,8v55.1c0,1.7-1.1,2.8-2.9,2.8h-4.4c-1.9,0-2.9-1.1-2.9-2.8V36.1c0-1.9,1.1-2.8,2.9-2.8H94
	c1.9,0,2.9,0.9,2.9,2.8v1.7c3.3-3.3,8-5.2,12.1-5.2c5.9,0,10.9,3.7,10.9,12.2V104.5z"/>
<path class="st1" d="M140.8,104.4c0,1.9-1.1,2.9-2.9,2.9h-4.4c-1.9,0-2.9-1.1-2.9-2.9V56.2c0-1.9,1.1-2.8,2.9-2.8h4.4
	c1.9,0,2.9,0.9,2.9,2.8V104.4z"/>
<path class="st1" d="M151.5,36.1c0-1.9,1.1-2.8,2.9-2.8h4.4c1.9,0,2.9,0.9,2.9,2.8v55.5c0,5.7,1.5,7.5,5.9,7.5
	c4.5,0,7.1-2.3,7.1-7.9V36.1c0-1.9,0.9-2.8,2.8-2.8h4.5c1.9,0,2.8,0.9,2.8,2.8v68.4c0,1.7-0.9,2.8-2.8,2.8h-4.5
	c-1.9,0-2.8-1.1-2.8-2.8v-1.7c-3.5,3.3-8.1,5.2-12.2,5.2c-5.9,0-10.9-3.7-10.9-12.2L151.5,36.1L151.5,36.1z"/>
<path class="st1" d="M210.8,108c-12.9,0-16.6-5.6-16.6-15.8v-8.5c0-1.9,0.9-2.9,2.8-2.9h4.5c1.9,0,2.8,1.1,2.8,2.9v8.4
	c0,5.6,2,7.5,6.5,7.5c4.4,0,6.4-1.9,6.4-7.5c0-8.3-1.1-8.9-5.9-13.7l-10.1-9.8c-4.8-4.7-7.1-8.6-7.1-20c0-10.2,3.7-15.8,16.6-15.8
	c12.8,0,16.6,5.6,16.6,15.8v8.5c0,1.9-1.1,2.8-2.9,2.8H220c-1.9,0-2.9-0.9-2.9-2.8v-8.4c0-5.7-2-7.5-6.4-7.5c-4.5,0-6.5,1.7-6.5,7.5
	c0,8.3,1.1,8.8,5.9,13.7l10.1,9.8c4.8,4.7,7.2,8.6,7.2,20C227.4,102.4,223.6,108,210.8,108z"/>
</svg>
