<?xml version="1.0" encoding="utf-8"?>
<!-- Generator: Adobe Illustrator 24.1.3, SVG Export Plug-In . SVG Version: 6.00 Build 0)  -->
<svg version="1.1" id="Layer_1" xmlns="http://www.w3.org/2000/svg" xmlns:xlink="http://www.w3.org/1999/xlink" x="0px" y="0px"
	 viewBox="0 0 380 114" style="enable-background:new 0 0 380 114;" xml:space="preserve">
<style type="text/css">
	.st0{fill:none;stroke:#323E48;stroke-width:4.1224;stroke-miterlimit:10;}
	.st1{fill:#323E48;}
	.st2{fill:#93D500;}
	.st3{fill:#93D500;stroke:#323E48;stroke-width:4.5641;stroke-miterlimit:10;}
	.st4{fill:#FFFFFF;}
</style>
<line class="st0" x1="139.6" y1="67.3" x2="2" y2="67.3"/>
<g>
	<path class="st1" d="M24.8,0.4c12.7,0,22.7,9.9,22.7,22.8c0,13-10,23.3-22.7,23.3S2.1,36.2,2.1,23.2C2.1,10.3,12.2,0.4,24.8,0.4z
		 M24.8,42.4c10,0,18.1-8.4,18.1-19.3c0-10.7-8.1-18.7-18.1-18.7c-10.1,0-18.1,8.1-18.1,18.7C6.7,34.1,14.7,42.4,24.8,42.4z"/>
	<path class="st1" d="M52.4,1.1h15.4c8,0,13.8,5.2,13.8,13.4c0,8.3-5.8,13.6-13.8,13.6h-11v17.5h-4.4V1.1z M67.2,24.3
		c6,0,9.8-3.6,9.8-9.7c0-6-3.9-9.5-9.8-9.5H56.7v19.2H67.2z"/>
	<path class="st1" d="M98.4,5.1h-16v-4h36.4V5h-16v40.6h-4.4V5.1z"/>
	<path class="st1" d="M123.8,1.1h4.4v44.6h-4.4V1.1z"/>
	<path class="st1" d="M138.2,1.1h4.6l11.7,26.2c1,2.3,2.2,5.5,2.2,5.5h0.1c0,0,1.2-3.2,2.2-5.5l11.7-26.2h4.5l3.6,44.6h-4.4
		l-2.5-31.2c-0.2-2.4-0.1-6.2-0.1-6.2h-0.3c0,0-1.3,3.9-2.3,6.2l-10.5,22.9h-4.1l-10.5-22.9c-1-2.2-2.4-6.3-2.4-6.3h-0.1
		c0,0,0.1,3.9-0.1,6.3L139,45.7h-4.4L138.2,1.1z"/>
	<path class="st1" d="M185.1,1.1h4.4v44.6h-4.4V1.1z"/>
	<path class="st1" d="M196.7,42.6l23-33.5c1.6-2.3,3.1-4.1,3.1-4.1V4.9c0,0-1.1,0.1-3.2,0.1h-21.7V1.1h30.4v3.1l-23,33.5
		c-1.6,2.4-3.2,4.1-3.2,4.1v0.1c0,0,1.1-0.1,3.3-0.1h23.1v3.9h-31.8V42.6z"/>
	<path class="st1" d="M235.1,1.1h25.1V5h-20.7v16.2h16.9v3.9h-16.9v16.6h21.9v3.9h-26.3L235.1,1.1L235.1,1.1z"/>
</g>
<g>
	<path class="st2" d="M163,99.9c0,0.8-0.4,1.3-1.3,1.3h-2.1c-0.8,0-1.3-0.5-1.3-1.3v-0.8c-1.6,1.5-3.7,2.4-5.5,2.4
		c-2.7,0-4.9-1.7-4.9-5.5V73c0-3.9,2.3-5.5,4.9-5.5c1.9,0,4,0.8,5.5,2.4V54.2c0-0.8,0.4-1.3,1.3-1.3h2.1c0.8,0,1.3,0.4,1.3,1.3V99.9
		z M152.5,94.1c0,2.6,0.7,3.4,2.7,3.4c2.1,0,3.2-1,3.2-3.6V75c0-2.5-1.1-3.6-3.2-3.6c-2,0-2.7,0.8-2.7,3.4V94.1z"/>
	<path class="st2" d="M170.1,57.3c1.7,0,3,1.2,3,3c0,1.7-1.2,2.9-3,2.9c-1.7,0-2.9-1.2-2.9-2.9C167.2,58.5,168.4,57.3,170.1,57.3z
		 M172.4,99.9c0,0.8-0.5,1.3-1.3,1.3h-2c-0.8,0-1.3-0.5-1.3-1.3v-31c0-0.8,0.5-1.3,1.3-1.3h2c0.8,0,1.3,0.4,1.3,1.3V99.9z"/>
	<path class="st2" d="M184.7,101.5c-5.9,0-7.5-2.5-7.5-7.2v-3.9c0-0.8,0.4-1.3,1.3-1.3h2.1c0.8,0,1.3,0.5,1.3,1.3v3.8
		c0,2.5,0.9,3.4,3,3.4c2,0,2.9-0.8,2.9-3.4c0-3.7-0.5-4-2.7-6.2l-4.6-4.5c-2.2-2.1-3.2-3.9-3.2-9c0-4.6,1.7-7.2,7.5-7.2
		s7.5,2.5,7.5,7.2v3.9c0,0.8-0.5,1.3-1.3,1.3h-2c-0.8,0-1.3-0.4-1.3-1.3v-3.8c0-2.6-0.9-3.4-2.9-3.4c-2.1,0-3,0.8-3,3.4
		c0,3.7,0.5,4,2.7,6.2l4.6,4.5c2.2,2.1,3.3,3.9,3.3,9C192.2,99,190.5,101.5,184.7,101.5z"/>
	<path class="st2" d="M196.9,68.9c0-0.8,0.5-1.3,1.3-1.3h2c0.8,0,1.3,0.4,1.3,1.3v0.8c1.5-1.5,3.6-2.4,5.5-2.4
		c2.7,0,4.9,1.7,4.9,5.5v23c0,3.9-2.3,5.5-4.9,5.5c-1.9,0-4-0.8-5.5-2.4V112c0,0.8-0.5,1.3-1.3,1.3h-2c-0.8,0-1.3-0.4-1.3-1.3V68.9z
		 M207.4,74.7c0-2.5-0.7-3.4-2.7-3.4c-2.1,0-3.1,1.1-3.1,3.6v18.9c0,2.5,1.1,3.6,3.1,3.6s2.7-0.8,2.7-3.4V74.7z"/>
	<path class="st2" d="M221.4,99.9c0,0.8-0.5,1.3-1.3,1.3h-2c-0.8,0-1.3-0.5-1.3-1.3V54.2c0-0.8,0.5-1.3,1.3-1.3h2
		c0.8,0,1.3,0.4,1.3,1.3V99.9z"/>
	<path class="st2" d="M236.7,82.4v-7.8c0-2.6-0.9-3.4-3-3.4c-2,0-2.9,0.8-2.9,3.4v2.6c0,0.8-0.5,1.3-1.3,1.3h-2
		c-0.8,0-1.3-0.4-1.3-1.3v-2.7c0-4.6,1.7-7.2,7.5-7.2s7.5,2.5,7.5,7.2v25.4c0,0.8-0.4,1.3-1.3,1.3h-2.1c-0.8,0-1.3-0.5-1.3-1.3v-0.8
		c-1.6,1.5-3.7,2.4-5.5,2.4c-2.7,0-4.9-1.7-4.9-5.5v-6.4c0-4.6,1.7-7.2,7.5-7.2H236.7z M233.8,86.2c-2,0-2.9,0.8-2.9,3.4v4.5
		c0,2.6,0.7,3.4,2.7,3.4c2.1,0,3.2-1,3.2-3.6v-7.7C236.8,86.2,233.8,86.2,233.8,86.2z"/>
	<path class="st2" d="M248.7,68.9l2.4,17l1.1,10.6h0.3l1.1-10.6l2.4-17c0.1-0.9,0.5-1.3,1.5-1.3h1.9c0.8,0,1.4,0.5,1.2,1.6
		l-6.5,42.8c-0.1,0.8-0.5,1.3-1.4,1.3h-1.9c-0.8,0-1.4-0.5-1.2-1.6l1.7-10.5h-1c-0.9,0-1.3-0.4-1.5-1.3l-4.7-30.7
		c-0.2-1.1,0.4-1.6,1.2-1.6h1.9C248.2,67.7,248.5,68,248.7,68.9z"/>
</g>
<circle class="st3" cx="328.6" cy="51" r="48.4"/>
<g>
	<path class="st4" d="M324,26.3h-14.3c-3.4,0-6.3,2.8-6.3,6.3V47h5.4V32.6c0-0.5,0.4-0.9,0.9-0.9l0,0H324V26.3z"/>
	<path class="st4" d="M347.3,26.3H333v5.4h14.4c0.5,0,0.9,0.4,0.9,0.8l0,0v14.4h5.4V32.6C353.7,29,350.9,26.3,347.3,26.3z"/>
	<path class="st4" d="M308.8,69.3V54.9h-5.4v14.4c0,3.4,2.8,6.3,6.3,6.3H324v-5.4h-14.3C309.2,70.2,308.8,69.8,308.8,69.3z"/>
	<path class="st4" d="M348.3,69.3c0,0.5-0.4,0.9-0.9,0.9h-14.3v5.4h14.4c3.4,0,6.3-2.8,6.3-6.3V54.9h-5.4L348.3,69.3z"/>
	<path class="st4" d="M337,45c0-4.7-3.7-8.4-8.4-8.4c-4.7,0-8.4,3.7-8.4,8.4c0,2.8,1.5,5.5,3.7,7c-2.9,0.1-5.4,2.2-6,5l-0.5,2.6
		c-0.5,2.1,0.7,4.2,2.9,4.9c0.4,0.1,0.8,0.1,1.2,0.1h14.3c2.2,0.1,4-1.6,4.1-3.7c0-0.4,0-0.8-0.1-1.2l-0.6-2.7c-0.6-2.8-3.1-4.9-6-5
		C335.5,50.5,337,47.8,337,45z"/>
</g>
</svg>
