<?xml version="1.0" encoding="utf-8"?>
<!-- Generator: Adobe Illustrator 24.1.3, SVG Export Plug-In . SVG Version: 6.00 Build 0)  -->
<svg version="1.1" id="Layer_1" xmlns="http://www.w3.org/2000/svg" xmlns:xlink="http://www.w3.org/1999/xlink" x="0px" y="0px"
	 viewBox="0 0 380 114" style="enable-background:new 0 0 380 114;" xml:space="preserve">
<style type="text/css">
	.st0{fill:none;stroke:#323E48;stroke-width:4.1224;stroke-miterlimit:10;}
	.st1{fill:#323E48;}
	.st2{fill:#8F4899;}
	.st3{fill:#8F4899;stroke:#323E48;stroke-width:4.5641;stroke-miterlimit:10;}
	.st4{fill:#FFFFFF;}
</style>
<line class="st0" x1="165.8" y1="73.4" x2="2" y2="73.4"/>
<g>
	<path class="st1" d="M24.8,6.4c12.7,0,22.7,10,22.7,22.8c0,13.1-10,23.3-22.7,23.3S2.1,42.3,2.1,29.2C2.1,16.4,12.2,6.4,24.8,6.4z
		 M24.8,48.5c10,0,18.1-8.4,18.1-19.3c0-10.7-8.1-18.7-18.1-18.7c-10.1,0-18.1,8.1-18.1,18.7C6.7,40.1,14.7,48.5,24.8,48.5z"/>
	<path class="st1" d="M52.4,7.2h15.4c8,0,13.8,5.2,13.8,13.4c0,8.3-5.8,13.6-13.8,13.6h-11v17.5h-4.4V7.2z M67.2,30.3
		c6,0,9.8-3.6,9.8-9.7c0-6-3.9-9.5-9.8-9.5H56.7v19.2H67.2z"/>
	<path class="st1" d="M98.4,11.1h-16V7.2h36.4v3.9h-16v40.6h-4.4V11.1z"/>
	<path class="st1" d="M123.8,7.2h4.4v44.6h-4.4V7.2z"/>
	<path class="st1" d="M138.2,7.2h4.6l11.7,26.2c1,2.3,2.2,5.5,2.2,5.5h0.1c0,0,1.2-3.2,2.2-5.5l11.7-26.2h4.5l3.6,44.6h-4.4
		l-2.5-31.2c-0.2-2.4-0.1-6.2-0.1-6.2h-0.3c0,0-1.3,3.9-2.3,6.2l-10.5,22.9h-4.1l-10.5-22.9c-1-2.2-2.4-6.3-2.4-6.3h-0.1
		c0,0,0.1,3.9-0.1,6.3L139,51.8h-4.4L138.2,7.2z"/>
	<path class="st1" d="M185.1,7.2h4.4v44.6h-4.4V7.2z"/>
	<path class="st1" d="M196.7,48.7l23-33.5c1.6-2.3,3.1-4.1,3.1-4.1V11c0,0-1.1,0.1-3.2,0.1h-21.7V7.2h30.4v3.1l-23,33.5
		c-1.6,2.4-3.2,4.1-3.2,4.1V48c0,0,1.1-0.1,3.3-0.1h23.1v3.9h-31.8V48.7z"/>
	<path class="st1" d="M235,7.2h25.1v3.9h-20.7v16.2h16.9v3.9h-16.9v16.6h21.9v3.9H235L235,7.2L235,7.2z"/>
</g>
<g>
	<path class="st2" d="M184.9,88.4v-7.8c0-2.6-0.9-3.4-3-3.4c-2,0-2.9,0.8-2.9,3.4v2.6c0,0.8-0.5,1.3-1.3,1.3h-2
		c-0.8,0-1.3-0.4-1.3-1.3v-2.7c0-4.6,1.7-7.2,7.5-7.2s7.5,2.5,7.5,7.2V106c0,0.8-0.4,1.3-1.3,1.3H186c-0.8,0-1.3-0.5-1.3-1.3v-0.8
		c-1.6,1.5-3.7,2.4-5.5,2.4c-2.7,0-4.9-1.7-4.9-5.5v-6.4c0-4.6,1.7-7.2,7.5-7.2L184.9,88.4L184.9,88.4z M181.9,92.2
		c-2,0-2.9,0.8-2.9,3.4v4.5c0,2.6,0.7,3.4,2.7,3.4c2.1,0,3.2-1,3.2-3.6v-7.7C184.9,92.2,181.9,92.2,181.9,92.2z"/>
	<path class="st2" d="M194.3,75c0-0.8,0.5-1.3,1.3-1.3h2c0.8,0,1.3,0.4,1.3,1.3v25.2c0,2.6,0.7,3.4,2.7,3.4c2.1,0,3.2-1,3.2-3.6V75
		c0-0.8,0.4-1.3,1.3-1.3h2.1c0.8,0,1.3,0.4,1.3,1.3v31c0,0.8-0.4,1.3-1.3,1.3h-2.1c-0.8,0-1.3-0.5-1.3-1.3v-0.8
		c-1.6,1.5-3.7,2.4-5.5,2.4c-2.7,0-4.9-1.7-4.9-5.5V75H194.3z"/>
	<path class="st2" d="M229.2,106c0,0.8-0.4,1.3-1.3,1.3h-2.1c-0.8,0-1.3-0.5-1.3-1.3v-0.8c-1.6,1.5-3.7,2.4-5.5,2.4
		c-2.7,0-4.9-1.7-4.9-5.5V79c0-3.9,2.3-5.5,4.9-5.5c1.9,0,4,0.8,5.5,2.4V60.3c0-0.8,0.4-1.3,1.3-1.3h2.1c0.8,0,1.3,0.4,1.3,1.3V106z
		 M218.8,100.1c0,2.6,0.7,3.4,2.7,3.4c2.1,0,3.2-1,3.2-3.6V81c0-2.5-1.1-3.6-3.2-3.6c-2,0-2.7,0.8-2.7,3.4V100.1z"/>
	<path class="st2" d="M236.4,63.3c1.7,0,3,1.2,3,3c0,1.7-1.2,2.9-3,2.9c-1.7,0-2.9-1.2-2.9-2.9C233.5,64.5,234.7,63.3,236.4,63.3z
		 M238.7,105.9c0,0.8-0.5,1.3-1.3,1.3h-2c-0.8,0-1.3-0.5-1.3-1.3V75c0-0.8,0.5-1.3,1.3-1.3h2c0.8,0,1.3,0.4,1.3,1.3V105.9z"/>
	<path class="st2" d="M258.6,80.6v19.8c0,4.6-1.7,7.2-7.5,7.2c-5.9,0-7.5-2.5-7.5-7.2V80.6c0-4.6,1.7-7.2,7.5-7.2
		C256.9,73.4,258.6,75.9,258.6,80.6z M248.2,80.7v19.7c0,2.5,0.9,3.4,2.9,3.4c2.1,0,3-0.8,3-3.4V80.7c0-2.6-0.9-3.4-3-3.4
		C249.1,77.3,248.2,78.1,248.2,80.7z"/>
</g>
<circle class="st3" cx="328.6" cy="57" r="48.4"/>
<g>
	<path class="st4" d="M322.1,61.4c5.5-0.3,9.9-4.9,9.9-10.5c0-5.8-4.7-10.5-10.5-10.5c-0.6,0-1.2,0.1-1.8,0.2L314,29.5
		c0.6-0.3,1.1-0.6,1.5-0.7c8-3.1,17.7-1.1,22.7,1.6c2.8,1.5,7,5.5,8.2,7.8c1.4,2.5,3.7,10,3.4,11c-0.2,0.7-1.1,2.2-0.8,3
		c1,2.2,5.1,7.3,5.1,8.3c0,1.4-2.7,1.7-3.1,2.2c-0.5,0.6-0.3,1.8-0.3,1.8s0.6,1.3,0.6,1.7c-0.1,0.7-1.2,1.4-1.2,1.4s1,0.5,1.1,1.6
		c0,0.4-1.3,1.8-1.4,2.1c-0.2,1,0.8,3.1,0.4,4.1c-0.2,0.6-0.4,4.3-8.1,3.1c-1-0.1-4-0.7-4-0.7c-0.8,2,0.3,2.6-2.2,6.6
		c-0.8,1.2-1.5,5-1.5,5L320,79.2l-0.6-0.4l-6.6-4.7c0,0,0-6.7-2.6-10c-4.8-6.1-6.7-14-6.6-19c0.1-5.3,2.5-9.2,5.2-11.9l5.2,10.1
		c-1.9,1.9-3.1,4.5-3.1,7.4c0,5.4,4,9.8,9.2,10.4C320.2,61.3,321.3,61.4,322.1,61.4z"/>
</g>
</svg>
