<?xml version="1.0" encoding="utf-8"?>
<!-- Generator: Adobe Illustrator 24.1.3, SVG Export Plug-In . SVG Version: 6.00 Build 0)  -->
<svg version="1.1" id="overview" xmlns="http://www.w3.org/2000/svg" xmlns:xlink="http://www.w3.org/1999/xlink" x="0px" y="0px"
	 viewBox="0 0 380 114" style="enable-background:new 0 0 380 114;" xml:space="preserve">
<style type="text/css">
	.st0{fill:none;stroke:#323E48;stroke-width:4.1224;stroke-miterlimit:10;}
	.st1{fill:#323E48;}
	.st2{fill:#F5A800;}
	.st3{fill:#F5A800;stroke:#323E48;stroke-width:4.5641;stroke-miterlimit:10;}
	.st4{fill:#FFFFFF;}
</style>
<g>
	<line class="st0" x1="128.6" y1="73.4" x2="2" y2="73.4"/>
	<g>
		<path class="st1" d="M24.8,6.4c12.7,0,22.7,10,22.7,22.8c0,13.1-10,23.3-22.7,23.3S2.1,42.3,2.1,29.2C2.1,16.4,12.2,6.4,24.8,6.4z
			 M24.8,48.5c10,0,18.1-8.4,18.1-19.3c0-10.7-8.1-18.7-18.1-18.7c-10.1,0-18.1,8.1-18.1,18.7C6.7,40.1,14.7,48.5,24.8,48.5z"/>
		<path class="st1" d="M52.4,7.2h15.4c8,0,13.8,5.2,13.8,13.4c0,8.3-5.8,13.6-13.8,13.6h-11v17.5h-4.4V7.2z M67.2,30.3
			c6,0,9.8-3.6,9.8-9.7c0-6-3.9-9.5-9.8-9.5H56.7v19.2H67.2z"/>
		<path class="st1" d="M98.4,11.1h-16V7.2h36.4v3.9h-16v40.6h-4.4V11.1z"/>
		<path class="st1" d="M123.8,7.2h4.4v44.6h-4.4V7.2z"/>
		<path class="st1" d="M138.2,7.2h4.6l11.7,26.2c1,2.3,2.2,5.5,2.2,5.5h0.1c0,0,1.2-3.2,2.2-5.5l11.7-26.2h4.5l3.6,44.6h-4.4
			l-2.5-31.2c-0.2-2.4-0.1-6.2-0.1-6.2h-0.3c0,0-1.3,3.9-2.3,6.2l-10.5,22.9h-4.1l-10.5-22.9c-1-2.2-2.4-6.3-2.4-6.3h-0.1
			c0,0,0.1,3.9-0.1,6.3L139,51.8h-4.4L138.2,7.2z"/>
		<path class="st1" d="M185.1,7.2h4.4v44.6h-4.4V7.2z"/>
		<path class="st1" d="M196.7,48.7l23-33.5c1.6-2.3,3.1-4.1,3.1-4.1V11c0,0-1.1,0.1-3.2,0.1h-21.7V7.2h30.4v3.1l-23,33.5
			c-1.6,2.4-3.2,4.1-3.2,4.1V48c0,0,1.1-0.1,3.3-0.1h23.1v3.9h-31.8V48.7z"/>
		<path class="st1" d="M235,7.2h25.1v3.9h-20.7v16.2h16.9v3.9h-16.9v16.6h21.9v3.9H235L235,7.2L235,7.2z"/>
	</g>
	<g>
		<path class="st2" d="M152,80.6v19.8c0,4.6-1.7,7.2-7.5,7.2c-5.9,0-7.5-2.5-7.5-7.2V80.6c0-4.6,1.7-7.2,7.5-7.2S152,75.9,152,80.6z
			 M141.5,80.7v19.7c0,2.5,0.9,3.4,2.9,3.4c2.1,0,3-0.8,3-3.4V80.7c0-2.6-0.9-3.4-3-3.4C142.4,77.3,141.5,78.1,141.5,80.7z"/>
		<path class="st2" d="M158.6,73.7v-8.9c0-0.8,0.5-1.3,1.3-1.3h2c0.8,0,1.3,0.4,1.3,1.3v8.9h3.8c0.8,0,1.3,0.4,1.3,1.3v1.3
			c0,0.8-0.5,1.3-1.3,1.3h-3.8v21.8c0,2.6,0.7,4,3.6,4h1.4c0.8,0,1.3,0.4,1.3,1.3v1.3c0,0.8-0.5,1.3-1.3,1.3h-1.4
			c-6.4,0-8.2-2.8-8.2-7.8V77.6H156c-0.8,0-1.3-0.5-1.3-1.3V75c0-0.8,0.5-1.3,1.3-1.3H158.6z"/>
		<path class="st2" d="M174.1,73.7v-8.9c0-0.8,0.5-1.3,1.3-1.3h2c0.8,0,1.3,0.4,1.3,1.3v8.9h3.8c0.8,0,1.3,0.4,1.3,1.3v1.3
			c0,0.8-0.5,1.3-1.3,1.3h-3.8v21.8c0,2.6,0.7,4,3.6,4h1.4c0.8,0,1.3,0.4,1.3,1.3v1.3c0,0.8-0.5,1.3-1.3,1.3h-1.4
			c-6.4,0-8.2-2.8-8.2-7.8V77.6h-2.6c-0.8,0-1.3-0.5-1.3-1.3V75c0-0.8,0.5-1.3,1.3-1.3H174.1z"/>
		<path class="st2" d="M197.8,87.4h6.9c0.8,0,1.3,0.4,1.3,1.3v1.6c0,0.8-0.4,1.3-1.3,1.3h-6.9v6.8c0,0.8-0.4,1.3-1.3,1.3h-1.6
			c-0.8,0-1.3-0.5-1.3-1.3v-6.8h-6.8c-0.8,0-1.3-0.5-1.3-1.3v-1.6c0-0.8,0.5-1.3,1.3-1.3h6.8v-6.9c0-0.8,0.5-1.3,1.3-1.3h1.6
			c0.8,0,1.3,0.4,1.3,1.3V87.4z"/>
		<path class="st2" d="M225.8,85.4c0,0.8-0.4,1.3-1.3,1.3h-2c-0.8,0-1.3-0.4-1.3-1.3v-4.7c0-2.6-0.9-3.4-3-3.4c-2,0-2.9,0.8-2.9,3.4
			v19.7c0,2.5,0.9,3.4,2.9,3.4c2.1,0,3-0.8,3-3.4v-4.7c0-0.8,0.4-1.3,1.3-1.3h2.1c0.8,0,1.3,0.5,1.3,1.3v4.8c0,4.6-1.7,7.2-7.5,7.2
			s-7.5-2.5-7.5-7.2V80.6c0-4.6,1.7-7.2,7.5-7.2s7.5,2.5,7.5,7.2v4.8H225.8z"/>
		<path class="st2" d="M232.4,73.7v-8.9c0-0.8,0.5-1.3,1.3-1.3h2c0.8,0,1.3,0.4,1.3,1.3v8.9h3.8c0.8,0,1.3,0.4,1.3,1.3v1.3
			c0,0.8-0.5,1.3-1.3,1.3H237v21.8c0,2.6,0.7,4,3.6,4h1.4c0.8,0,1.3,0.4,1.3,1.3v1.3c0,0.8-0.5,1.3-1.3,1.3h-1.4
			c-6.4,0-8.2-2.8-8.2-7.8V77.6h-2.6c-0.8,0-1.3-0.5-1.3-1.3V75c0-0.8,0.5-1.3,1.3-1.3H232.4z"/>
		<path class="st2" d="M248.7,75l2.4,17l1.1,10.6h0.3l1.1-10.6l2.4-17c0.1-0.9,0.5-1.3,1.5-1.3h1.9c0.8,0,1.4,0.5,1.2,1.6l-4.8,30.7
			c-0.1,0.8-0.5,1.3-1.4,1.3h-4.2c-1,0-1.3-0.4-1.5-1.3L244,75.3c-0.2-1.1,0.4-1.6,1.2-1.6h1.9C248.2,73.7,248.5,74.1,248.7,75z"/>
	</g>
	<circle class="st3" cx="328.6" cy="57" r="48.4"/>
	<g>
		<g>
			<polygon class="st4" points="333,77.6 324.1,77.6 326.1,62.3 331,62.3 			"/>
			<path class="st4" d="M343.9,78.5h-32.4c-0.1,0-0.2-0.1-0.2-0.2v-0.4c0-2.2,1.8-3.9,3.9-3.9h28.7c1.1,0,2.1,0.9,2.1,2.1v0.4
				C346,77.5,345.1,78.5,343.9,78.5z"/>
		</g>
		<path class="st4" d="M299.6,37.9v32.6h57.9V37.9H299.6z M336.6,54.9c-0.2,0.2-0.4,0.4-0.6,0.6l-10.3,5.9c-0.2,0.1-0.5,0.2-0.7,0.2
			c-0.8,0-1.5-0.7-1.5-1.5V48.2c0-0.8,0.7-1.5,1.5-1.5c0.2,0,0.5,0,0.7,0.2l10.3,5.9C336.7,53.3,337,54.2,336.6,54.9z"/>
	</g>
</g>
</svg>
